<?xml version="1.0" standalone="no"?>
<!DOCTYPE svg PUBLIC "-//W3C//DTD SVG 20010904//EN"
 "http://www.w3.org/TR/2001/REC-SVG-20010904/DTD/svg10.dtd">
<svg version="1.0" xmlns="http://www.w3.org/2000/svg"
 width="1158.000000pt" height="1158.000000pt" viewBox="0 0 1158.000000 1158.000000"
 preserveAspectRatio="xMidYMid meet">
<metadata>
Created by potrace 1.14, written by Peter Selinger 2001-2017
</metadata>
<g transform="translate(0.000000,1158.000000) scale(0.100000,-0.100000)"
fill="#000000" stroke="none">
<path d="M5406 11559 c-2544 -172 -4676 -1987 -5250 -4471 -135 -581 -183
-1254 -131 -1805 159 -1666 999 -3157 2335 -4145 1029 -761 2271 -1154 3555
-1125 484 11 885 66 1332 182 832 216 1590 608 2268 1171 164 136 549 519 687
684 604 720 989 1481 1217 2403 123 496 151 682 158 1052 16 774 -74 1427
-284 2070 -234 716 -581 1343 -1073 1936 -136 162 -540 566 -705 703 -971 807
-2099 1259 -3355 1346 -166 11 -579 11 -754 -1z m-1895 -1084 c637 -111 907
-712 624 -1385 -90 -212 -221 -404 -405 -594 -196 -201 -383 -338 -625 -456
-261 -128 -456 -179 -717 -187 -187 -6 -287 5 -413 44 -509 161 -725 656 -536
1232 91 276 250 520 492 756 329 320 693 515 1105 589 107 19 369 20 475 1z
m3910 -2765 c240 -49 444 -157 625 -332 252 -244 384 -552 384 -901 0 -222
-41 -394 -140 -586 -180 -349 -520 -599 -908 -666 -109 -19 -316 -19 -426 0
-457 80 -841 408 -986 843 -48 146 -64 243 -64 397 -1 157 13 247 56 385 134
423 470 738 907 850 173 44 367 47 552 10z m-2096 -2127 c89 -192 203 -357
359 -520 180 -188 341 -306 571 -419 462 -227 988 -264 1476 -104 416 137 792
420 1038 783 24 35 38 47 57 47 30 0 292 -57 509 -111 523 -131 1035 -293
1655 -525 290 -109 290 -109 290 -138 0 -46 -84 -358 -149 -554 -136 -407
-334 -834 -517 -1114 -397 -608 -529 -775 -900 -1138 -933 -913 -2128 -1459
-3444 -1575 -203 -17 -664 -20 -875 -5 -1467 107 -2827 774 -3805 1866 -543
606 -944 1313 -1184 2086 -51 164 -119 428 -113 435 7 7 219 86 472 178 711
256 1523 489 2165 620 633 129 1311 218 1935 255 99 6 203 12 230 13 28 2 82
4 120 5 l70 1 40 -86z"/>
<path d="M6960 7421 c-317 -70 -583 -298 -699 -601 -85 -220 -82 -506 8 -720
63 -152 180 -303 311 -402 84 -64 244 -143 345 -170 118 -31 354 -31 480 0
270 67 512 264 635 517 77 157 94 238 94 430 -1 192 -17 267 -93 420 -130 263
-349 444 -631 520 -100 27 -341 30 -450 6z m425 -81 c87 -22 219 -81 289 -129
385 -265 503 -794 266 -1191 -219 -368 -659 -531 -1061 -395 -342 117 -582
433 -605 800 -15 228 76 479 234 647 151 160 329 256 532 287 91 14 250 5 345
-19z"/>
</g>
</svg>
